{"title":"Asylum S01E02 - Project Siren x264 RB58.mp4","uid":11707133,"size":309417831,"categoryP":"video","categoryS":"tv_shows","magnet":"?xt=urn:btih:5e5f7545e1656b698b7e2811d8e95a3858630398&amp;dn=Asylum+S01E02+-+Project+Siren+x264+RB58.mp4&amp;tr=udp%3A%2F%2Ftracker.openbittorrent.com%3A80&amp;tr=udp%3A%2F%2Fopen.demonii.com%3A1337&amp;tr=udp%3A%2F%2Ftracker.coppersurfer.tk%3A6969&amp;tr=udp%3A%2F%2Fexodus.desync.com%3A6969","seeders":0,"leechers":1,"uploader":"RedBaron58","files":1,"time":1424131317,"description":"Asylum (2015) S01E02 - Project Siren - Comedy Drama x264 mp4\n &lt;a href=&quot;\nhttp://www.imdb.com/title/tt4442462/&quot; rel=&quot;nofollow&quot; target=&quot;_NEW&quot;&gt;\nhttp://www.imdb.com/title/tt4442462/&lt;/a&gt;\n &lt;a href=&quot;\nhttp://www.bbc.co.uk/programmes/b0528n1j&quot; rel=&quot;nofollow&quot; target=&quot;_NEW&quot;&gt;\nhttp://www.bbc.co.uk/programmes/b0528n1j&lt;/a&gt;\n\n\nTrailer:\n\n\nThank you for your kind comments and ratings on my other torrents, your feedback is welcome.\n\n\nAbout the Episode:\nCIA and MI6 join forces to try to lure Dan out of the embassy. While MI6 sets up an internet-based \nhoney trap, the CIA sends a mole in to discover and leak all the staff secrets and pin the blame on Dan. Meanwhile, lawyer Lorna tries to intervene.\nStarring Ben Miller (Death in Paradise)\n\nI hope you enjoy.\n\n\nTechnical:\n\nGeneral\nComplete name                            : H:Asylum S01E02 - Project Siren x264 RB58.mp4\nFormat                                   : MPEG-4\nFormat profile                           : Base Media\nCodec ID                                 : isom\nFile size                                : 295 MiB\nDuration                                 : 27mn 27s\nOverall bit rate mode                    : Constant\nOverall bit rate                         : 1 503 Kbps\nWriting application                      : Lavf54.63.104\n\nVideo\nID                                       : 1\nFormat                                   : AVC\nFormat/Info                              : Advanced Video Codec\nFormat profile                           : &lt;a class=&quot;__cf_email__&quot; href=&quot;/cdn-cgi/l/email-protection&quot; data-cfemail=&quot;96dbf7fff8d6daa5b8a7&quot;&gt;[email&amp;#160;protected]&lt;/a&gt;&lt;script cf-hash='f9e31' type=&quot;text/javascript&quot;&gt;\n/* &lt;![CDATA[ */!function(){try{var t=&quot;currentScript&quot;in document?document.currentScript:function(){for(var t=document.getElementsByTagName(&quot;script&quot;),e=t.length;e--;)if(t[e].getAttribute(&quot;cf-hash&quot;))return t[e]}();if(t&amp;&amp;t.previousSibling){var e,r,n,i,c=t.previousSibling,a=c.getAttribute(&quot;data-cfemail&quot;);if(a){for(e=&quot;&quot;,r=parseInt(a.substr(0,2),16),n=2;a.length-n;n+=2)i=parseInt(a.substr(n,2),16)^r,e+=String.fromCharCode(i);e=document.createTextNode(e),c.parentNode.replaceChild(e,c)}}}catch(u){}}();/* ]]&gt; */&lt;/script&gt;\nFormat settings, CABAC                   : Yes\nFormat settings, ReFrames                : 2 frames\nCodec ID                                 : avc1\nCodec ID/Info                            : Advanced Video Coding\nDuration                                 : 27mn 27s\nBit rate mode                            : Constant\nBit rate                                 : 1 404 Kbps\nWidth                                    : 832 pixels\nHeight                                   : 468 pixels\nDisplay aspect ratio                     : 16:9\nFrame rate mode                          : Constant\nFrame rate                               : 25.000 fps\nColor space                              : YUV\nChroma subsampling                       : 4:2:0\nBit depth                                : 8 bits\nScan type                                : Progressive\nBits/(Pixel*Frame)                       : 0.144\nStream size                              : 276 MiB (93%)\n\nAudio\nID                                       : 2\nFormat                                   : AAC\nFormat/Info                              : Advanced Audio Codec\nFormat profile                           : LC\nCodec ID                                 : 40\nDuration                                 : 27mn 27s\nBit rate mode                            : Constant\nBit rate                                 : 93.5 Kbps\nChannel(s)                               : 2 channels\nChannel positions                        : Front: L R\nSampling rate                            : 48.0 KHz\nCompression mode                         : Lossy\nStream size                              : 18.4 MiB (6%)","torrent":{"xt":"urn:btih:5e5f7545e1656b698b7e2811d8e95a3858630398","amp;dn":"Asylum+S01E02+-+Project+Siren+x264+RB58.mp4","amp;tr":["udp%3A%2F%2Ftracker.openbittorrent.com%3A80","udp%3A%2F%2Fopen.demonii.com%3A1337","udp%3A%2F%2Ftracker.coppersurfer.tk%3A6969","udp%3A%2F%2Fexodus.desync.com%3A6969"],"infoHash":"5e5f7545e1656b698b7e2811d8e95a3858630398","infoHashBuffer":{"type":"Buffer","data":[94,95,117,69,225,101,107,105,139,126,40,17,216,233,90,56,88,99,3,152]},"announce":[],"urlList":[]}}